<svg width="161" height="161" viewBox="0 0 161 161" fill="none" xmlns="http://www.w3.org/2000/svg">
<path d="M80.7157 80.7151L80.7157 1C124.741 1 160.431 36.6897 160.431 80.7151C160.431 97.5492 155.101 113.951 145.207 127.57L80.7157 80.7151Z" fill="#3A4151" stroke="#202430"/>
<path d="M80.7156 80.7151L145.206 127.57C119.329 163.188 69.4776 171.083 33.8603 145.206C20.2412 135.311 10.1041 121.359 4.9021 105.348L80.7156 80.7151Z" fill="#3A4151" stroke="#202430"/>
<path d="M80.7157 80.715L4.90214 105.348C-2.98311 81.08 1.2262 54.5035 16.2248 33.8596L80.7157 80.715Z" fill="#3A4151" stroke="#202430"/>
<path d="M80.7157 80.7151L16.2249 33.8597C31.2235 13.2159 55.1985 1 80.7157 1V80.7151Z" fill="#3A4151" stroke="#202430"/>
</svg>
