<svg width="64" height="64" viewBox="0 0 64 64" fill="none" xmlns="http://www.w3.org/2000/svg">
<path d="M32.0012 31.9988V1C49.1214 1 63 14.8786 63 31.9988C63 41.9216 58.2496 51.2448 50.2218 57.0773L32.0012 31.9988Z" fill="#FBFBFB"/>
<path d="M32.0012 31.9988V1C49.1214 1 63 14.8786 63 31.9988C63 41.9216 58.2496 51.2448 50.2218 57.0773L32.0012 31.9988Z" stroke="#3A4151"/>
<path d="M32.001 31.9988L50.2216 57.0773C36.3711 67.1403 16.9854 64.0699 6.92244 50.2194C-3.14053 36.3689 -0.0701414 16.9832 13.7804 6.92024C19.0764 3.07242 25.4547 1 32.001 1V31.9988Z" fill="#202430"/>
<path d="M32.001 31.9988L50.2216 57.0773C36.3711 67.1403 16.9854 64.0699 6.92244 50.2194C-3.14053 36.3689 -0.0701414 16.9832 13.7804 6.92024C19.0764 3.07242 25.4547 1 32.001 1V31.9988Z" stroke="#3A4151"/>
<circle cx="31.8987" cy="31.8987" r="25.8987" fill="#3A4151"/>
</svg>
