<svg width="28" height="28" viewBox="0 0 28 28" fill="none" xmlns="http://www.w3.org/2000/svg">
<circle cx="14" cy="14" r="14" fill="#202430"/>
<path d="M12.9995 11.456H14.9995V20H12.9995V11.456ZM14.0075 10.048C13.6448 10.048 13.3408 9.936 13.0955 9.712C12.8502 9.47733 12.7275 9.18933 12.7275 8.848C12.7275 8.50667 12.8502 8.224 13.0955 8C13.3408 7.76533 13.6448 7.648 14.0075 7.648C14.3702 7.648 14.6742 7.76 14.9195 7.984C15.1648 8.19733 15.2875 8.46933 15.2875 8.8C15.2875 9.152 15.1648 9.45067 14.9195 9.696C14.6848 9.93067 14.3808 10.048 14.0075 10.048Z" fill="#FBFBFB"/>
</svg>
