<svg width="31" height="13" viewBox="0 0 31 13" fill="none" xmlns="http://www.w3.org/2000/svg">
<path d="M5.935 12H7.375V9.424H8.975V8.16H7.375V0.544H5.631L0.015 8.32V9.424H5.935V12ZM1.695 8.16L5.999 2.064V8.16H1.695ZM10.4295 6.096C10.4295 9.456 11.2615 12 14.4615 12C17.6455 12 18.4775 9.456 18.4775 6.096C18.4775 2.784 17.6455 0.256 14.4615 0.256C11.2615 0.256 10.4295 2.784 10.4295 6.096ZM17.0375 6.096C17.0375 8.592 16.7335 10.672 14.4615 10.672C12.1735 10.672 11.8695 8.592 11.8695 6.096C11.8695 3.696 12.1735 1.584 14.4615 1.584C16.7335 1.584 17.0375 3.696 17.0375 6.096ZM20.1564 3.04C20.1564 4.544 21.1644 5.44 22.4924 5.44C23.8364 5.44 24.8284 4.544 24.8284 3.04C24.8284 1.552 23.8364 0.655999 22.4924 0.655999C21.1644 0.655999 20.1564 1.552 20.1564 3.04ZM22.4924 1.552C23.1964 1.552 23.6764 2.032 23.6764 3.04C23.6764 4.032 23.1964 4.544 22.4924 4.544C21.7884 4.544 21.3244 4.032 21.3244 3.04C21.3244 2.032 21.7884 1.552 22.4924 1.552ZM21.5804 12H23.0204L29.5004 0.832H28.0604L21.5804 12ZM26.2844 9.792C26.2844 11.28 27.2764 12.192 28.6204 12.192C29.9484 12.192 30.9404 11.28 30.9404 9.792C30.9404 8.288 29.9484 7.392 28.6204 7.392C27.2764 7.392 26.2844 8.288 26.2844 9.792ZM28.6044 8.304C29.3084 8.304 29.7884 8.784 29.7884 9.792C29.7884 10.784 29.3084 11.264 28.6044 11.264C27.9004 11.264 27.4204 10.784 27.4204 9.792C27.4204 8.784 27.9004 8.304 28.6044 8.304Z" fill="#FBFBFB"/>
</svg>
